<?xml version="1.0" encoding="iso-8859-1"?>
<!-- Uploaded to: SVG Repo, www.svgrepo.com, Generator: SVG Repo Mixer Tools -->
<svg xmlns="http://www.w3.org/2000/svg" xmlns:xlink="http://www.w3.org/1999/xlink" version="1.1" id="Layer_1"  viewBox="0 0 490.006 490.006" xml:space="preserve" width="512" height="512">
<g>
	<rect x="144.671" y="426.723" style="fill:#7A797E;" width="41.289" height="63.283"/>
	<rect x="305.698" y="426.723" style="fill:#7A797E;" width="41.289" height="63.283"/>
	<path style="fill:#C8C6CB;" d="M115.617,94.139c-26.713,0-48.57-21.181-48.57-47.069v0C67.047,21.181,88.904,0,115.617,0h259.038   c26.713,0,48.57,21.181,48.57,47.069v0c0,25.888-21.856,47.069-48.57,47.069H115.617z"/>
	<path style="opacity:0.31;fill:#59575C;" d="M374.655,66.74H115.617c-21.801,0-40.361-14.11-46.452-33.37   c-1.372,4.34-2.117,8.939-2.117,13.7v0c0,25.888,21.856,47.069,48.57,47.069h259.038c26.713,0,48.57-21.181,48.57-47.069v0   c0-4.761-0.745-9.36-2.117-13.7C415.016,52.63,396.456,66.74,374.655,66.74z"/>
	<path style="fill:#FFB057;" d="M374.238,89.184v324.944c0,12.542-10.167,22.709-22.709,22.709H138.477   c-12.542,0-22.709-10.167-22.709-22.709V89.184"/>
	<path style="fill:#FFC079;" d="M298.126,244.431H191.88c-42.035,0-76.112-34.076-76.112-76.112V53.676h258.469v114.643   C374.238,210.354,340.161,244.431,298.126,244.431z"/>
	<path style="fill:#FFE8CE;" d="M193.949,203.968h-2.685c-17.843,0-32.308-14.465-32.308-32.308V94.139h67.301v77.521   C226.257,189.503,211.792,203.968,193.949,203.968z"/>
	<path style="fill:#FFE8CE;" d="M298.742,203.968h-2.685c-17.843,0-32.308-14.465-32.308-32.308V94.139h67.301v77.521   C331.05,189.503,316.585,203.968,298.742,203.968z"/>
	<rect x="115.768" y="317.1" style="fill:#AA6518;" width="258.469" height="47.895"/>
	<path style="fill:#FFB057;" d="M115.768,370.775h-29.23c-15.325,0-27.749-12.424-27.749-27.749V209.748h56.979V370.775z"/>
	<path style="fill:#FFB057;" d="M374.238,370.775h29.23c15.325,0,27.749-12.424,27.749-27.749V209.748h-56.979V370.775z"/>
	<rect x="58.79" y="209.748" style="fill:#AA6518;" width="56.979" height="43.015"/>
	<rect x="374.238" y="209.748" style="fill:#AA6518;" width="56.979" height="43.015"/>
	<g>
		<path style="fill:#403E43;" d="M198.703,364.995H185.4c-4.142,0-7.5-3.258-7.5-7.277V127.075c0-4.019,3.358-7.277,7.5-7.277    h13.304c4.142,0,7.5,3.258,7.5,7.277v230.642C206.203,361.737,202.845,364.995,198.703,364.995z"/>
	</g>
	<g>
		<path style="fill:#403E43;" d="M304.051,364.995h-13.303c-4.142,0-7.5-3.258-7.5-7.277V127.075c0-4.019,3.358-7.277,7.5-7.277    h13.303c4.142,0,7.5,3.258,7.5,7.277v230.642C311.551,361.737,308.193,364.995,304.051,364.995z"/>
	</g>
	<rect x="168.269" style="fill:#59575C;" width="42.317" height="53.676"/>
	<rect x="276.241" style="fill:#59575C;" width="42.317" height="53.676"/>
	<rect x="144.671" y="436.838" style="fill:#403E43;" width="41.289" height="19.428"/>
	<rect x="305.698" y="436.838" style="fill:#403E43;" width="41.289" height="19.428"/>
	<rect x="89.759" y="209.748" style="opacity:0.24;fill:#AA6518;" width="26.01" height="161.027"/>
	<rect x="374.238" y="209.748" style="opacity:0.24;fill:#AA6518;" width="26.01" height="161.027"/>
	<path style="opacity:0.21;fill:#AA6518;" d="M338.049,53.429v75.103v148.781v47.895v49.134c0,12.542-10.167,22.709-22.709,22.709   H115.901v16.831c0,12.542,10.167,22.709,22.709,22.709h213.051c12.542,0,22.709-10.167,22.709-22.709v-49.134v-47.895V168.072   V88.937V53.429H338.049z"/>
</g>















</svg>